Coordinates
version=1
nRows=27
nColumns=38
inDegrees=no

Units are S.I. units (second, meters, Newtons, ...)
If the header above contains a line with 'inDegrees', this indicates whether rotational values are in degrees (yes) or radians (no).

endheader
time	pelvis_tilt	pelvis_list	pelvis_rotation	pelvis_tx	pelvis_ty	pelvis_tz	hip_flexion_r	hip_adduction_r	hip_rotation_r	knee_angle_r	ankle_angle_r	subtalar_angle_r	mtp_angle_r	hip_flexion_l	hip_adduction_l	hip_rotation_l	knee_angle_l	ankle_angle_l	subtalar_angle_l	mtp_angle_l	lumbar_extension	lumbar_bending	lumbar_rotation	arm_flex_r	arm_add_r	arm_rot_r	elbow_flex_r	pro_sup_r	wrist_flex_r	wrist_dev_r	arm_flex_l	arm_add_l	arm_rot_l	elbow_flex_l	pro_sup_l	wrist_flex_l	wrist_dev_l
0	2.66121	1.167	-0.986923	0.727053	-0.658301	0.967833	-0.336554	0.262995	-0.0190857	0.0964641	-0.488359	0	0	-0.112682	-0.259153	0.139062	1.3324	-0.289373	0	0	-0.592952	0.295827	0.0545869	-0.208153	-0.653112	0.688368	0.970254	0.621022	0	0	-0.130706	-0.270466	0.282503	0.639115	1.183	0	0
0.01	2.68144	1.2247	-1.02735	0.731285	-0.648099	0.960196	-0.276336	0.224441	-0.0421803	0.157854	-0.388789	0	0	-0.0291558	-0.223117	0.113197	1.37719	-0.254283	0	0	-0.539729	0.244651	0.0329544	-0.181095	-0.653596	0.748006	0.966173	0.572409	0	0	-0.170497	-0.284544	0.249681	0.676071	1.18395	0	0
0.02	2.69754	1.27717	-1.06047	0.73351	-0.639109	0.954345	-0.223624	0.188531	-0.0339862	0.205023	-0.315349	0	0	0.0472381	-0.180757	0.108846	1.41596	-0.194407	0	0	-0.490281	0.20512	0.0221766	-0.165577	-0.651467	0.782415	0.95788	0.553248	0	0	-0.189583	-0.283194	0.2207	0.683701	1.19643	0	0
0.03	2.72456	1.28907	-1.09726	0.734798	-0.631207	0.95363	-0.224745	0.173223	-0.0432075	0.20902	-0.304685	0	0	0.0820117	-0.16889	0.0946514	1.40917	-0.200598	0	0	-0.484624	0.186989	0.0245107	-0.16064	-0.650859	0.788934	0.957676	0.548567	0	0	-0.193014	-0.283918	0.212907	0.687796	1.20102	0	0
0.04	2.74254	1.29116	-1.12305	0.735873	-0.623332	0.954206	-0.234654	0.166474	-0.0438759	0.211366	-0.296074	0	0	0.106772	-0.166472	0.0774999	1.40451	-0.188909	0	0	-0.486778	0.176934	0.0282824	-0.154264	-0.650793	0.796258	0.955924	0.545371	0	0	-0.192748	-0.282115	0.205228	0.688101	1.20462	0	0
0.05	2.7599	1.29089	-1.14713	0.736892	-0.615642	0.954898	-0.248092	0.161613	-0.0426416	0.20869	-0.291179	0	0	0.128425	-0.167749	0.0569608	1.39386	-0.178118	0	0	-0.491469	0.168445	0.0323064	-0.148655	-0.651071	0.801827	0.955402	0.54295	0	0	-0.192341	-0.281501	0.199258	0.689972	1.20805	0	0
0.06	2.77555	1.29056	-1.17005	0.737986	-0.60792	0.955422	-0.26178	0.156916	-0.0407336	0.205484	-0.286976	0	0	0.14853	-0.17251	0.0305924	1.37804	-0.169511	0	0	-0.496111	0.160011	0.0364917	-0.143063	-0.651444	0.806811	0.955649	0.540198	0	0	-0.193019	-0.281383	0.192915	0.692959	1.21142	0	0
0.07	2.78955	1.28995	-1.19065	0.738938	-0.600223	0.955613	-0.27513	0.152087	-0.042668	0.202383	-0.283157	0	0	0.1686	-0.181972	-0.00316588	1.35993	-0.164098	0	0	-0.500766	0.152379	0.0398392	-0.13827	-0.653434	0.811203	0.958891	0.538024	0	0	-0.195368	-0.281947	0.186329	0.698509	1.21466	0	0
0.08	2.79881	1.28711	-1.20813	0.7401	-0.592178	0.955639	-0.290681	0.149064	-0.0421223	0.199636	-0.278803	0	0	0.185572	-0.204303	-0.0565503	1.33958	-0.165489	0	0	-0.506767	0.145895	0.0444951	-0.134307	-0.656464	0.815218	0.963905	0.535837	0	0	-0.200556	-0.283211	0.179137	0.706931	1.21674	0	0
0.09	2.81041	1.2843	-1.22726	0.741103	-0.584156	0.95572	-0.306825	0.145541	-0.0390603	0.195631	-0.274057	0	0	0.197787	-0.222289	-0.10455	1.31144	-0.170047	0	0	-0.512938	0.139148	0.0482253	-0.129502	-0.65911	0.820242	0.96795	0.533619	0	0	-0.204622	-0.284089	0.172623	0.714103	1.21775	0	0
0.1	2.82114	1.27976	-1.24233	0.741585	-0.57639	0.956238	-0.323978	0.143004	-0.0235815	0.194024	-0.269377	0	0	0.205552	-0.233596	-0.138894	1.2755	-0.174762	0	0	-0.521165	0.135386	0.0494591	-0.123223	-0.661934	0.82572	0.970981	0.530924	0	0	-0.204878	-0.282464	0.166088	0.717561	1.21593	0	0
0.11	2.83336	1.27834	-1.25779	0.741994	-0.568854	0.956217	-0.338369	0.139262	-0.0200917	0.189149	-0.266276	0	0	0.215268	-0.239841	-0.168038	1.23554	-0.179518	0	0	-0.526207	0.129617	0.0499791	-0.116979	-0.663256	0.831488	0.97252	0.527383	0	0	-0.206759	-0.283942	0.162793	0.723047	1.21794	0	0
0.12	2.84346	1.2782	-1.27049	0.74238	-0.561191	0.956018	-0.351432	0.135919	-0.0184832	0.184096	-0.264444	0	0	0.224087	-0.244019	-0.195017	1.19138	-0.184873	0	0	-0.529182	0.124202	0.049675	-0.110163	-0.663575	0.838712	0.972293	0.524166	0	0	-0.208033	-0.285367	0.160544	0.725995	1.21928	0	0
0.13	2.85301	1.27944	-1.28194	0.742644	-0.553412	0.955784	-0.363529	0.132328	-0.0184503	0.177749	-0.261948	0	0	0.231614	-0.245791	-0.220391	1.14342	-0.193223	0	0	-0.530445	0.119708	0.0472531	-0.100622	-0.66403	0.850497	0.970488	0.519667	0	0	-0.207598	-0.283998	0.155512	0.725918	1.21675	0	0
0.14	2.86196	1.28111	-1.29168	0.74278	-0.545563	0.955435	-0.375324	0.128837	-0.0202067	0.171354	-0.261746	0	0	0.237308	-0.245277	-0.242138	1.09333	-0.197856	0	0	-0.530555	0.115416	0.0449375	-0.0919985	-0.663332	0.861598	0.967095	0.514852	0	0	-0.207029	-0.283678	0.153101	0.725653	1.21765	0	0
0.15	2.86566	1.28215	-1.29755	0.742847	-0.537773	0.954955	-0.387024	0.126258	-0.018269	0.165631	-0.261129	0	0	0.240407	-0.247095	-0.267185	1.04205	-0.201263	0	0	-0.531238	0.112379	0.0445901	-0.0845773	-0.664014	0.870794	0.965508	0.509292	0	0	-0.206091	-0.282482	0.150211	0.72527	1.2174	0	0
0.16	2.86679	1.28506	-1.30011	0.742778	-0.529922	0.954247	-0.396609	0.124092	-0.0151829	0.160063	-0.257513	0	0	0.244317	-0.245113	-0.2847	0.988137	-0.202937	0	0	-0.529583	0.110226	0.04407	-0.0786517	-0.664642	0.878717	0.963952	0.504145	0	0	-0.20462	-0.28075	0.147637	0.722944	1.21813	0	0
0.17	2.86633	1.28968	-1.29899	0.742471	-0.521951	0.953219	-0.404636	0.122492	-0.0142123	0.15424	-0.252837	0	0	0.249431	-0.24021	-0.295469	0.93163	-0.201758	0	0	-0.525604	0.1092	0.0419395	-0.0740926	-0.664816	0.884984	0.962279	0.499797	0	0	-0.203566	-0.278738	0.14445	0.72009	1.21948	0	0
0.18	2.86342	1.29496	-1.29376	0.741921	-0.51402	0.951987	-0.41189	0.121889	-0.0141564	0.148255	-0.250005	0	0	0.254617	-0.232813	-0.298139	0.871904	-0.197031	0	0	-0.520815	0.109356	0.0385171	-0.0696916	-0.664422	0.889746	0.960197	0.496068	0	0	-0.203222	-0.277145	0.141125	0.718371	1.22118	0	0
0.19	2.86092	1.30206	-1.28641	0.741081	-0.506327	0.950619	-0.416824	0.1214	-0.0155899	0.142475	-0.246386	0	0	0.260293	-0.218418	-0.28438	0.80546	-0.187352	0	0	-0.514184	0.109934	0.0330561	-0.0644969	-0.663134	0.895656	0.956553	0.493187	0	0	-0.201164	-0.275395	0.138294	0.715379	1.22464	0	0
0.2	2.89983	1.33964	-1.32197	0.740728	-0.497475	0.944372	-0.399226	0.0772851	-0.0739031	0.182269	-0.179503	0	0	0.295666	-0.183065	-0.264013	0.748616	-0.164444	0	0	-0.474702	0.0907151	0.0177516	-0.0660042	-0.657726	0.899658	0.954013	0.493633	0	0	-0.214164	-0.278374	0.127727	0.72425	1.22759	0	0
0.21	2.85951	1.33517	-1.26683	0.738523	-0.491647	0.947538	-0.403988	0.115954	-0.0197244	0.136812	-0.227175	0	0	0.254978	-0.132908	-0.104264	0.583109	-0.151183	0	0	-0.48032	0.107035	0.0134188	-0.0488275	-0.647198	0.915204	0.925268	0.493713	0	0	-0.185534	-0.266834	0.130518	0.685342	1.23925	0	0
0.22	2.89285	1.37006	-1.29812	0.737936	-0.482344	0.94095	-0.3891	0.0736551	-0.0761231	0.175514	-0.173011	0	0	0.287597	-0.110214	-0.101644	0.537073	-0.136996	0	0	-0.443085	0.0899232	0.00150761	-0.0558111	-0.645152	0.912754	0.928319	0.493908	0	0	-0.201871	-0.270479	0.120542	0.699187	1.2416	0	0
0.23	2.83506	1.34414	-1.23633	0.736328	-0.474416	0.944169	-0.420675	0.118231	-0.0215132	0.126831	-0.218097	0	0	0.25191	-0.129087	-0.108045	0.464569	-0.143814	0	0	-0.468347	0.112538	0.0074367	-0.0469339	-0.648333	0.920689	0.922001	0.493142	0	0	-0.187526	-0.26015	0.119272	0.681324	1.24809	0	0
0.24	2.82718	1.34748	-1.22558	0.7351	-0.465746	0.942662	-0.429565	0.118491	-0.0221604	0.122869	-0.221283	0	0	0.246426	-0.12623	-0.110627	0.409576	-0.140799	0	0	-0.464047	0.11481	0.00586063	-0.0479218	-0.649162	0.920302	0.921233	0.491082	0	0	-0.186466	-0.256579	0.115612	0.677585	1.25286	0	0
0.25	2.81772	1.35124	-1.21362	0.733824	-0.457069	0.94113	-0.436264	0.118548	-0.0227492	0.121923	-0.219132	0	0	0.241284	-0.123349	-0.113585	0.360554	-0.135643	0	0	-0.459182	0.116631	0.00470316	-0.0487065	-0.649167	0.920427	0.919001	0.489924	0	0	-0.186471	-0.254248	0.113932	0.67571	1.25666	0	0
0.26	2.80906	1.35471	-1.20179	0.732439	-0.448531	0.939692	-0.441611	0.118332	-0.0245864	0.12362	-0.216865	0	0	0.236173	-0.119414	-0.114031	0.316855	-0.132588	0	0	-0.455048	0.118672	0.00322867	-0.0499342	-0.649497	0.920145	0.9173	0.489447	0	0	-0.185752	-0.251795	0.112273	0.673875	1.26036	0	0
